<svg xmlns="http://www.w3.org/2000/svg" viewBox="0 0 800 200">
  <defs>
    <linearGradient id="bg2" x1="0%" y1="0%" x2="100%" y2="0%">
      <stop offset="0%" style="stop-color:#0a0a0f"/>
      <stop offset="100%" style="stop-color:#111118"/>
    </linearGradient>
    <filter id="glow2">
      <feGaussianBlur stdDeviation="2" result="blur"/>
      <feMerge><feMergeNode in="blur"/><feMergeNode in="SourceGraphic"/></feMerge>
    </filter>
  </defs>
  <rect width="800" height="200" rx="6" fill="url(#bg2)"/>
  <rect width="800" height="200" rx="6" stroke="#1e1e2a" stroke-width="1" fill="none"/>
  <!-- Circuit decoration -->
  <g stroke="#00d4ff" stroke-width="0.6" opacity="0.15" fill="none">
    <path d="M600,30 L650,30 L650,60 L700,60 L700,90"/>
    <path d="M620,50 L670,50 L670,80 L720,80"/>
    <path d="M640,70 L690,70 L690,110 L740,110"/>
    <circle cx="700" cy="90" r="3" fill="#00d4ff" opacity="0.3"/>
    <circle cx="720" cy="80" r="3" fill="#00d4ff" opacity="0.3"/>
    <circle cx="740" cy="110" r="3" fill="#00d4ff" opacity="0.3"/>
  </g>
  <!-- Title -->
  <text x="40" y="100" font-family="'Share Tech Mono',monospace" font-size="42" font-weight="bold" fill="#00d4ff" filter="url(#glow2)">ESP32</text>
  <text x="210" y="100" font-family="'Share Tech Mono',monospace" font-size="42" font-weight="bold" fill="#e8e8ed">-HARNESS</text>
  <!-- Accent -->
  <rect x="40" y="115" width="50" height="2" rx="1" fill="#00d4ff"/>
  <!-- Subtitle -->
  <text x="40" y="145" font-family="'Share Tech Mono',monospace" font-size="12" fill="#6b6b7b" letter-spacing="2">PENTESTING &amp; TELEMETRY FIRMWARE</text>
  <!-- Stats -->
  <text x="40" y="175" font-family="'Share Tech Mono',monospace" font-size="10" fill="#28c840">3 Radios</text>
  <text x="130" y="175" font-family="'Share Tech Mono',monospace" font-size="10" fill="#6b6b7b">|</text>
  <text x="150" y="175" font-family="'Share Tech Mono',monospace" font-size="10" fill="#28c840">7 Modes</text>
  <text x="230" y="175" font-family="'Share Tech Mono',monospace" font-size="10" fill="#6b6b7b">|</text>
  <text x="250" y="175" font-family="'Share Tech Mono',monospace" font-size="10" fill="#28c840">$5 Hardware</text>
  <text x="370" y="175" font-family="'Share Tech Mono',monospace" font-size="10" fill="#6b6b7b">|</text>
  <text x="390" y="175" font-family="'Share Tech Mono',monospace" font-size="10" fill="#28c840">MIT</text>
</svg>