<svg xmlns="http://www.w3.org/2000/svg" viewBox="0 0 600 180">
  <defs>
    <linearGradient id="g1" x1="0%" y1="0%" x2="100%" y2="100%">
      <stop offset="0%" style="stop-color:#00d4ff;stop-opacity:0.15"/>
      <stop offset="100%" style="stop-color:#00d4ff;stop-opacity:0"/>
    </linearGradient>
    <filter id="glow">
      <feGaussianBlur stdDeviation="2" result="blur"/>
      <feMerge><feMergeNode in="blur"/><feMergeNode in="SourceGraphic"/></feMerge>
    </filter>
  </defs>
  <!-- Background -->
  <rect width="600" height="180" rx="6" fill="#0a0a0f"/>
  <rect width="600" height="180" rx="6" fill="url(#g1)"/>
  <rect x="1" y="1" width="598" height="178" rx="5" stroke="#1e1e2a" stroke-width="1" fill="none"/>
  <!-- Circuit traces -->
  <g stroke="#00d4ff" stroke-width="0.8" opacity="0.2" fill="none">
    <path d="M480,20 L520,20 L520,50 L560,50"/>
    <path d="M480,40 L500,40 L500,70 L540,70"/>
    <path d="M500,90 L540,90 L540,120 L580,120"/>
    <circle cx="560" cy="50" r="3" fill="#00d4ff" opacity="0.3"/>
    <circle cx="540" cy="70" r="3" fill="#00d4ff" opacity="0.3"/>
    <circle cx="580" cy="120" r="3" fill="#00d4ff" opacity="0.3"/>
  </g>
  <!-- Main text -->
  <text x="30" y="80" font-family="'Courier New',monospace" font-size="48" font-weight="bold" fill="#00d4ff" filter="url(#glow)">ESP32</text>
  <text x="230" y="80" font-family="'Courier New',monospace" font-size="48" font-weight="bold" fill="#e8e8ed">-HARNESS</text>
  <!-- Accent line -->
  <rect x="30" y="95" width="60" height="2" rx="1" fill="#00d4ff"/>
  <!-- Subtitle -->
  <text x="30" y="120" font-family="'Courier New',monospace" font-size="12" fill="#6b6b7b" letter-spacing="3">PENTESTING  AUDIT  TELEMETRY</text>
  <!-- Version + license -->
  <text x="30" y="150" font-family="'Courier New',monospace" font-size="10" fill="#6b6b7b">v1.0</text>
  <text x="80" y="150" font-family="'Courier New',monospace" font-size="10" fill="#28c840">MIT</text>
  <text x="120" y="150" font-family="'Courier New',monospace" font-size="10" fill="#6b6b7b">ESP32-WROOM-32</text>
</svg>