<svg xmlns="http://www.w3.org/2000/svg" viewBox="0 0 1200 630">
  <defs>
    <linearGradient id="bg" x1="0%" y1="0%" x2="100%" y2="100%">
      <stop offset="0%" style="stop-color:#0a0a0f"/>
      <stop offset="100%" style="stop-color:#0f1218"/>
    </linearGradient>
    <linearGradient id="accent" x1="0%" y1="0%" x2="100%" y2="0%">
      <stop offset="0%" style="stop-color:#00d4ff;stop-opacity:0.2"/>
      <stop offset="100%" style="stop-color:#00d4ff;stop-opacity:0"/>
    </linearGradient>
    <filter id="glow">
      <feGaussianBlur stdDeviation="3" result="blur"/>
      <feMerge><feMergeNode in="blur"/><feMergeNode in="SourceGraphic"/></feMerge>
    </filter>
  </defs>
  <rect width="1200" height="630" fill="url(#bg)"/>
  <rect width="1200" height="630" fill="url(#accent)"/>
  <rect x="40" y="40" width="1120" height="550" rx="8" stroke="#1e1e2a" stroke-width="1" fill="none"/>
  <!-- Grid pattern -->
  <g stroke="#1e1e2a" stroke-width="0.3" opacity="0.4">
    <line x1="200" y1="40" x2="200" y2="590"/>
    <line x1="400" y1="40" x2="400" y2="590"/>
    <line x1="600" y1="40" x2="600" y2="590"/>
    <line x1="800" y1="40" x2="800" y2="590"/>
    <line x1="1000" y1="40" x2="1000" y2="590"/>
    <line x1="40" y1="150" x2="1160" y2="150"/>
    <line x1="40" y1="300" x2="1160" y2="300"/>
    <line x1="40" y1="450" x2="1160" y2="450"/>
  </g>
  <!-- Circuit traces right side -->
  <g stroke="#00d4ff" stroke-width="1" opacity="0.15" fill="none">
    <path d="M800,100 L900,100 L900,180 L1000,180 L1000,250"/>
    <path d="M850,200 L950,200 L950,300 L1050,300"/>
    <path d="M900,350 L1000,350 L1000,420 L1100,420"/>
    <circle cx="1000" cy="250" r="4" fill="#00d4ff" opacity="0.3"/>
    <circle cx="1050" cy="300" r="4" fill="#00d4ff" opacity="0.3"/>
    <circle cx="1100" cy="420" r="4" fill="#00d4ff" opacity="0.3"/>
  </g>
  <!-- Title -->
  <text x="80" y="220" font-family="'Share Tech Mono',monospace" font-size="96" font-weight="bold" fill="#00d4ff" filter="url(#glow)">ESP32</text>
  <text x="480" y="220" font-family="'Share Tech Mono',monospace" font-size="96" font-weight="bold" fill="#e8e8ed">-HARNESS</text>
  <!-- Accent bar -->
  <rect x="80" y="245" width="100" height="4" rx="2" fill="#00d4ff"/>
  <!-- Subtitle -->
  <text x="80" y="290" font-family="'Share Tech Mono',monospace" font-size="22" fill="#6b6b7b" letter-spacing="4">PENTESTING, AUDIT &amp; TELEMETRY FIRMWARE</text>
  <!-- Features line -->
  <text x="80" y="340" font-family="'Share Tech Mono',monospace" font-size="16" fill="#6b6b7b">2.4 GHz Research  |  NRF24L01+  |  BLE 5.0  |  Forensic Capture</text>
  <!-- GitHub -->
  <text x="80" y="400" font-family="'Share Tech Mono',monospace" font-size="18" fill="#28c840">github.com/ykrishhh/ESP32-HARNESS</text>
  <!-- Bottom bar -->
  <text x="80" y="520" font-family="'Share Tech Mono',monospace" font-size="14" fill="#6b6b7b">ESP32-WROOM-32  |  MIT License  |  Open Source</text>
  <rect x="80" y="540" width="80" height="3" rx="1" fill="#00d4ff" opacity="0.5"/>
</svg>